<mxfile host="app.diagrams.net" modified="2023-05-21T00:08:08.753Z" agent="Mozilla/5.0 (Windows NT 10.0; Win64; x64) AppleWebKit/537.36 (KHTML, like Gecko) Chrome/113.0.0.0 Safari/537.36" etag="af4Da920xzRqe0gTzlbu" version="21.3.2" type="github">
  <diagram id="C5RBs43oDa-KdzZeNtuy" name="Page-1">
    <mxGraphModel dx="1201" dy="689" grid="0" gridSize="10" guides="1" tooltips="1" connect="1" arrows="1" fold="1" page="1" pageScale="1" pageWidth="827" pageHeight="1169" background="#ffffff" math="0" shadow="0">
      <root>
        <mxCell id="WIyWlLk6GJQsqaUBKTNV-0" />
        <mxCell id="WIyWlLk6GJQsqaUBKTNV-1" parent="WIyWlLk6GJQsqaUBKTNV-0" />
        <mxCell id="IguEvuTKmepFIFM6E3DM-27" value="&lt;div style=&quot;font-size: 16px;&quot;&gt;&lt;font style=&quot;font-size: 16px;&quot;&gt;&lt;b&gt;Program Flow:&lt;/b&gt;&lt;/font&gt;&lt;/div&gt;&lt;div style=&quot;font-size: 16px;&quot;&gt;&lt;br&gt;&lt;/div&gt;&lt;div&gt;The program begins with an instance of the Scripture class will displaying a scripture, including reference and text of&amp;nbsp;&lt;/div&gt;&lt;div&gt;verse/verses.&amp;nbsp;&lt;span style=&quot;background-color: initial;&quot;&gt;The user is prompted to press enter to hide random words and re-display the scripture, or type &quot;quit&quot; to&amp;nbsp;&lt;/span&gt;&lt;/div&gt;&lt;div&gt;&lt;span style=&quot;background-color: initial;&quot;&gt;end the program.&lt;/span&gt;&lt;/div&gt;&lt;div&gt;&lt;br&gt;&lt;/div&gt;&lt;div&gt;The Reference class will store the book, chapter, starting verse, and ending verse(if mulitple verses).&lt;/div&gt;&lt;div&gt;The Word class will store each word in the text and it&#39;s hidden status.&lt;/div&gt;&lt;div&gt;The Scripture class stores the scriputre, including its reference using a Reference object, and the text of the scripture&lt;/div&gt;&lt;div&gt;by creating Word objects from the Word class and storing them in the words list.&lt;/div&gt;&lt;div&gt;&lt;br&gt;&lt;/div&gt;&lt;div&gt;Each time the user presses enter, the scripture class will handle selecting random words to hide, clearing the console&amp;nbsp;&lt;/div&gt;&lt;div&gt;using the Console.Clear() method, and displaying a rendered version of the scripture.&amp;nbsp;&lt;/div&gt;&lt;div&gt;&lt;br&gt;&lt;/div&gt;&lt;div&gt;The program will end if the user types &quot;quit&quot; or when all of the words in the scripture are hidden.&lt;/div&gt;" style="text;html=1;align=left;verticalAlign=middle;resizable=0;points=[];autosize=1;strokeColor=none;fillColor=none;" parent="WIyWlLk6GJQsqaUBKTNV-1" vertex="1">
          <mxGeometry x="56" y="594" width="642" height="238" as="geometry" />
        </mxCell>
        <mxCell id="IguEvuTKmepFIFM6E3DM-28" value="Jennifer Tompkins&lt;br&gt;&lt;div style=&quot;&quot;&gt;&lt;span style=&quot;background-color: initial;&quot;&gt;Scripture Memorizer Design&lt;/span&gt;&lt;/div&gt;" style="text;html=1;align=left;verticalAlign=middle;resizable=0;points=[];autosize=1;strokeColor=none;fillColor=none;" parent="WIyWlLk6GJQsqaUBKTNV-1" vertex="1">
          <mxGeometry x="39" y="23" width="167" height="41" as="geometry" />
        </mxCell>
        <mxCell id="xL8gWNdVzd0Zu4KHVVUs-29" value="Reference" style="swimlane;fontStyle=1;align=center;verticalAlign=top;childLayout=stackLayout;horizontal=1;startSize=26;horizontalStack=0;resizeParent=1;resizeParentMax=0;resizeLast=0;collapsible=1;marginBottom=0;whiteSpace=wrap;html=1;" parent="WIyWlLk6GJQsqaUBKTNV-1" vertex="1">
          <mxGeometry x="42" y="92" width="161.5" height="477" as="geometry" />
        </mxCell>
        <mxCell id="xL8gWNdVzd0Zu4KHVVUs-30" value="&lt;div style=&quot;border-color: var(--border-color);&quot;&gt;_book : string&lt;/div&gt;&lt;div style=&quot;border-color: var(--border-color);&quot;&gt;_chapter : int&lt;/div&gt;&lt;div style=&quot;border-color: var(--border-color);&quot;&gt;_startVerse : int&lt;/div&gt;&lt;div style=&quot;border-color: var(--border-color);&quot;&gt;_endVerse : int&lt;/div&gt;" style="text;strokeColor=none;fillColor=none;align=left;verticalAlign=top;spacingLeft=4;spacingRight=4;overflow=hidden;rotatable=0;points=[[0,0.5],[1,0.5]];portConstraint=eastwest;whiteSpace=wrap;html=1;" parent="xL8gWNdVzd0Zu4KHVVUs-29" vertex="1">
          <mxGeometry y="26" width="161.5" height="76" as="geometry" />
        </mxCell>
        <mxCell id="xL8gWNdVzd0Zu4KHVVUs-31" value="" style="line;strokeWidth=1;fillColor=none;align=left;verticalAlign=middle;spacingTop=-1;spacingLeft=3;spacingRight=3;rotatable=0;labelPosition=right;points=[];portConstraint=eastwest;strokeColor=inherit;" parent="xL8gWNdVzd0Zu4KHVVUs-29" vertex="1">
          <mxGeometry y="102" width="161.5" height="8" as="geometry" />
        </mxCell>
        <mxCell id="xL8gWNdVzd0Zu4KHVVUs-32" value="&lt;div style=&quot;border-color: var(--border-color);&quot;&gt;Reference()&lt;/div&gt;&lt;div style=&quot;border-color: var(--border-color);&quot;&gt;Reference(string book,&lt;/div&gt;&lt;div style=&quot;border-color: var(--border-color);&quot;&gt;&lt;span style=&quot;white-space: pre;&quot;&gt; &lt;/span&gt;int chapter,&amp;nbsp;&lt;span style=&quot;background-color: initial;&quot;&gt;int &lt;span style=&quot;white-space: pre;&quot;&gt; &lt;/span&gt;startVerse)&lt;/span&gt;&lt;/div&gt;&lt;div style=&quot;border-color: var(--border-color);&quot;&gt;Reference(string book,&lt;/div&gt;&lt;div style=&quot;border-color: var(--border-color);&quot;&gt;&lt;span style=&quot;border-color: var(--border-color);&quot;&gt;&lt;span style=&quot;border-color: var(--border-color);&quot;&gt;&lt;span style=&quot;border-color: var(--border-color);&quot;&gt;&amp;nbsp;&amp;nbsp;&amp;nbsp;&amp;nbsp;&lt;/span&gt;&lt;/span&gt;int chapter,&lt;/span&gt;&lt;/div&gt;&lt;div style=&quot;border-color: var(--border-color);&quot;&gt;&lt;span style=&quot;border-color: var(--border-color);&quot;&gt;&lt;span style=&quot;border-color: var(--border-color);&quot;&gt;&lt;span style=&quot;border-color: var(--border-color);&quot;&gt;&amp;nbsp;&amp;nbsp;&amp;nbsp;&amp;nbsp;&lt;/span&gt;&lt;/span&gt;int startVerse,&lt;/span&gt;&lt;/div&gt;&lt;div style=&quot;border-color: var(--border-color);&quot;&gt;&lt;span style=&quot;border-color: var(--border-color);&quot;&gt;&lt;span style=&quot;border-color: var(--border-color);&quot;&gt;&lt;span style=&quot;border-color: var(--border-color);&quot;&gt;&amp;nbsp;&amp;nbsp;&amp;nbsp;&amp;nbsp;&lt;/span&gt;&lt;/span&gt;int endVerse)&lt;/span&gt;&lt;/div&gt;&lt;div style=&quot;border-color: var(--border-color);&quot;&gt;&lt;br style=&quot;border-color: var(--border-color);&quot;&gt;&lt;/div&gt;&lt;div style=&quot;border-color: var(--border-color);&quot;&gt;GetBook()&lt;/div&gt;&lt;div style=&quot;border-color: var(--border-color);&quot;&gt;SetBook(string book)&lt;/div&gt;&lt;div style=&quot;border-color: var(--border-color);&quot;&gt;GetChapter()&lt;/div&gt;&lt;div style=&quot;border-color: var(--border-color);&quot;&gt;SetChapter(int chapter)&lt;/div&gt;&lt;div style=&quot;border-color: var(--border-color);&quot;&gt;GetStartVerse()&lt;/div&gt;&lt;div style=&quot;border-color: var(--border-color);&quot;&gt;SetStartVerse(int startVerse)&lt;/div&gt;&lt;div style=&quot;border-color: var(--border-color);&quot;&gt;GetEndVerse()&lt;/div&gt;&lt;div style=&quot;border-color: var(--border-color);&quot;&gt;SetEndVerse(int endVerse)&lt;/div&gt;&lt;div style=&quot;border-color: var(--border-color);&quot;&gt;&lt;br style=&quot;border-color: var(--border-color);&quot;&gt;&lt;/div&gt;&lt;div style=&quot;border-color: var(--border-color);&quot;&gt;GetSimpleReference() : string&lt;/div&gt;&lt;div style=&quot;border-color: var(--border-color);&quot;&gt;GetMultipleReference() : string&lt;/div&gt;&lt;div style=&quot;border-color: var(--border-color);&quot;&gt;DisplayReference() : void&lt;/div&gt;" style="text;strokeColor=none;fillColor=none;align=left;verticalAlign=top;spacingLeft=4;spacingRight=4;overflow=hidden;rotatable=0;points=[[0,0.5],[1,0.5]];portConstraint=eastwest;whiteSpace=wrap;html=1;" parent="xL8gWNdVzd0Zu4KHVVUs-29" vertex="1">
          <mxGeometry y="110" width="161.5" height="367" as="geometry" />
        </mxCell>
        <mxCell id="xL8gWNdVzd0Zu4KHVVUs-34" value="Scripture" style="swimlane;fontStyle=1;align=center;verticalAlign=top;childLayout=stackLayout;horizontal=1;startSize=26;horizontalStack=0;resizeParent=1;resizeParentMax=0;resizeLast=0;collapsible=1;marginBottom=0;whiteSpace=wrap;html=1;" parent="WIyWlLk6GJQsqaUBKTNV-1" vertex="1">
          <mxGeometry x="333.5" y="91" width="166" height="324" as="geometry" />
        </mxCell>
        <mxCell id="xL8gWNdVzd0Zu4KHVVUs-35" value="&lt;div style=&quot;border-color: var(--border-color);&quot;&gt;_reference : Reference&lt;/div&gt;&lt;div style=&quot;border-color: var(--border-color);&quot;&gt;_text : string&lt;/div&gt;&lt;div style=&quot;border-color: var(--border-color);&quot;&gt;_words : List&amp;lt;Word&amp;gt;&lt;/div&gt;" style="text;strokeColor=none;fillColor=none;align=left;verticalAlign=top;spacingLeft=4;spacingRight=4;overflow=hidden;rotatable=0;points=[[0,0.5],[1,0.5]];portConstraint=eastwest;whiteSpace=wrap;html=1;" parent="xL8gWNdVzd0Zu4KHVVUs-34" vertex="1">
          <mxGeometry y="26" width="166" height="69" as="geometry" />
        </mxCell>
        <mxCell id="xL8gWNdVzd0Zu4KHVVUs-36" value="" style="line;strokeWidth=1;fillColor=none;align=left;verticalAlign=middle;spacingTop=-1;spacingLeft=3;spacingRight=3;rotatable=0;labelPosition=right;points=[];portConstraint=eastwest;strokeColor=inherit;" parent="xL8gWNdVzd0Zu4KHVVUs-34" vertex="1">
          <mxGeometry y="95" width="166" height="8" as="geometry" />
        </mxCell>
        <mxCell id="xL8gWNdVzd0Zu4KHVVUs-37" value="&lt;div style=&quot;border-color: var(--border-color);&quot;&gt;Scripture()&lt;/div&gt;&lt;div style=&quot;border-color: var(--border-color);&quot;&gt;Scripture(string text)&lt;/div&gt;&lt;div style=&quot;border-color: var(--border-color);&quot;&gt;Scripture(Reference reference,&lt;/div&gt;&lt;div style=&quot;border-color: var(--border-color);&quot;&gt;&lt;span style=&quot;white-space: pre;&quot;&gt;&amp;nbsp;&amp;nbsp;&amp;nbsp;&amp;nbsp;&lt;/span&gt;string text)&lt;span style=&quot;border-color: var(--border-color);&quot;&gt;&lt;/span&gt;&lt;/div&gt;&lt;div style=&quot;border-color: var(--border-color);&quot;&gt;&lt;br style=&quot;border-color: var(--border-color);&quot;&gt;&lt;/div&gt;&lt;div style=&quot;border-color: var(--border-color);&quot;&gt;GetScripture()&lt;/div&gt;&lt;div style=&quot;border-color: var(--border-color);&quot;&gt;SetScripture(string scripture)&lt;/div&gt;&lt;div style=&quot;border-color: var(--border-color);&quot;&gt;&lt;br style=&quot;border-color: var(--border-color);&quot;&gt;&lt;/div&gt;&lt;div style=&quot;border-color: var(--border-color);&quot;&gt;GetRenderedText() : string&lt;/div&gt;&lt;div style=&quot;border-color: var(--border-color);&quot;&gt;DisplayScripture() : void&lt;/div&gt;&lt;div style=&quot;border-color: var(--border-color);&quot;&gt;IsCompletelyHidden() : bool&lt;/div&gt;&lt;div style=&quot;border-color: var(--border-color);&quot;&gt;HideWords() : void&lt;/div&gt;" style="text;strokeColor=none;fillColor=none;align=left;verticalAlign=top;spacingLeft=4;spacingRight=4;overflow=hidden;rotatable=0;points=[[0,0.5],[1,0.5]];portConstraint=eastwest;whiteSpace=wrap;html=1;" parent="xL8gWNdVzd0Zu4KHVVUs-34" vertex="1">
          <mxGeometry y="103" width="166" height="221" as="geometry" />
        </mxCell>
        <mxCell id="xL8gWNdVzd0Zu4KHVVUs-38" value="Word" style="swimlane;fontStyle=1;align=center;verticalAlign=top;childLayout=stackLayout;horizontal=1;startSize=26;horizontalStack=0;resizeParent=1;resizeParentMax=0;resizeLast=0;collapsible=1;marginBottom=0;whiteSpace=wrap;html=1;" parent="WIyWlLk6GJQsqaUBKTNV-1" vertex="1">
          <mxGeometry x="599" y="88" width="160" height="223" as="geometry" />
        </mxCell>
        <mxCell id="xL8gWNdVzd0Zu4KHVVUs-39" value="&lt;div style=&quot;border-color: var(--border-color);&quot;&gt;_word : string&lt;/div&gt;&lt;div style=&quot;border-color: var(--border-color);&quot;&gt;_hidden : bool&lt;/div&gt;" style="text;strokeColor=none;fillColor=none;align=left;verticalAlign=top;spacingLeft=4;spacingRight=4;overflow=hidden;rotatable=0;points=[[0,0.5],[1,0.5]];portConstraint=eastwest;whiteSpace=wrap;html=1;" parent="xL8gWNdVzd0Zu4KHVVUs-38" vertex="1">
          <mxGeometry y="26" width="160" height="41" as="geometry" />
        </mxCell>
        <mxCell id="xL8gWNdVzd0Zu4KHVVUs-40" value="" style="line;strokeWidth=1;fillColor=none;align=left;verticalAlign=middle;spacingTop=-1;spacingLeft=3;spacingRight=3;rotatable=0;labelPosition=right;points=[];portConstraint=eastwest;strokeColor=inherit;" parent="xL8gWNdVzd0Zu4KHVVUs-38" vertex="1">
          <mxGeometry y="67" width="160" height="8" as="geometry" />
        </mxCell>
        <mxCell id="xL8gWNdVzd0Zu4KHVVUs-41" value="&lt;div style=&quot;border-color: var(--border-color);&quot;&gt;Word()&lt;/div&gt;&lt;div style=&quot;border-color: var(--border-color);&quot;&gt;Word(string text)&lt;/div&gt;&lt;div style=&quot;border-color: var(--border-color);&quot;&gt;&lt;br style=&quot;border-color: var(--border-color);&quot;&gt;&lt;/div&gt;&lt;div style=&quot;border-color: var(--border-color);&quot;&gt;GetWord(string text)&lt;/div&gt;&lt;div style=&quot;border-color: var(--border-color);&quot;&gt;SetWord(string text)&lt;/div&gt;&lt;div style=&quot;border-color: var(--border-color);&quot;&gt;&lt;br style=&quot;border-color: var(--border-color);&quot;&gt;&lt;/div&gt;&lt;div style=&quot;border-color: var(--border-color);&quot;&gt;Hide() : void&lt;/div&gt;&lt;div style=&quot;border-color: var(--border-color);&quot;&gt;IsHidden() : bool&lt;/div&gt;&lt;div style=&quot;border-color: var(--border-color);&quot;&gt;GetRenderedText():string&lt;/div&gt;" style="text;strokeColor=none;fillColor=none;align=left;verticalAlign=top;spacingLeft=4;spacingRight=4;overflow=hidden;rotatable=0;points=[[0,0.5],[1,0.5]];portConstraint=eastwest;whiteSpace=wrap;html=1;" parent="xL8gWNdVzd0Zu4KHVVUs-38" vertex="1">
          <mxGeometry y="75" width="160" height="148" as="geometry" />
        </mxCell>
        <mxCell id="QFD2x4Hw2M4lEVLJ3DqV-0" value="Reference Object" style="html=1;shadow=0;dashed=0;align=center;verticalAlign=middle;shape=mxgraph.arrows2.arrow;dy=0.6;dx=40;notch=0;" vertex="1" parent="WIyWlLk6GJQsqaUBKTNV-1">
          <mxGeometry x="203.5" y="183" width="128.5" height="70" as="geometry" />
        </mxCell>
        <mxCell id="QFD2x4Hw2M4lEVLJ3DqV-1" value="Word Object" style="html=1;shadow=0;dashed=0;align=center;verticalAlign=middle;shape=mxgraph.arrows2.arrow;dy=0.6;dx=40;flipH=1;notch=0;" vertex="1" parent="WIyWlLk6GJQsqaUBKTNV-1">
          <mxGeometry x="499.5" y="148" width="100" height="70" as="geometry" />
        </mxCell>
        <mxCell id="QFD2x4Hw2M4lEVLJ3DqV-2" value="&lt;h1&gt;&lt;font style=&quot;font-size: 15px;&quot;&gt;Input:&lt;/font&gt;&lt;/h1&gt;&lt;p&gt;Enter to continue (tells program to clear conole, hide random words, re-display scripture with rendered text)&lt;/p&gt;&lt;p&gt;&quot;quit&quot; to end program&lt;/p&gt;&lt;p&gt;&lt;br&gt;&lt;/p&gt;" style="text;html=1;strokeColor=none;fillColor=none;spacing=5;spacingTop=-20;whiteSpace=wrap;overflow=hidden;rounded=0;" vertex="1" parent="WIyWlLk6GJQsqaUBKTNV-1">
          <mxGeometry x="345" y="437" width="190" height="161" as="geometry" />
        </mxCell>
        <mxCell id="QFD2x4Hw2M4lEVLJ3DqV-3" value="&lt;h1&gt;&lt;font style=&quot;font-size: 15px;&quot;&gt;Output:&lt;/font&gt;&lt;/h1&gt;&lt;p&gt;Displays scripture with rendered text&lt;/p&gt;" style="text;html=1;strokeColor=none;fillColor=none;spacing=5;spacingTop=-20;whiteSpace=wrap;overflow=hidden;rounded=0;" vertex="1" parent="WIyWlLk6GJQsqaUBKTNV-1">
          <mxGeometry x="555" y="437" width="190" height="120" as="geometry" />
        </mxCell>
        <mxCell id="QFD2x4Hw2M4lEVLJ3DqV-5" value="&lt;h1&gt;&lt;font style=&quot;font-size: 15px;&quot;&gt;Ending the program:&lt;/font&gt;&lt;/h1&gt;&lt;p&gt;The program will end if the user types &quot;quit&quot; or when all of the words in the scripture are hidden.&lt;br&gt;&lt;/p&gt;" style="text;html=1;strokeColor=none;fillColor=none;spacing=5;spacingTop=-20;whiteSpace=wrap;overflow=hidden;rounded=0;" vertex="1" parent="WIyWlLk6GJQsqaUBKTNV-1">
          <mxGeometry x="56" y="829" width="673" height="120" as="geometry" />
        </mxCell>
      </root>
    </mxGraphModel>
  </diagram>
</mxfile>
